<?xml version="1.0" ?><svg data-name="Design Convert" id="Design_Convert" viewBox="0 0 64 64" xmlns="http://www.w3.org/2000/svg"><defs><style>.cls-1{fill:#010101;}</style></defs><title/><path class="cls-1" d="M48,57H42a3,3,0,0,1-3-3V10a3,3,0,0,1,3-3h6a3,3,0,0,1,3,3V54A3,3,0,0,1,48,57ZM42,9a1,1,0,0,0-1,1V54a1,1,0,0,0,1,1h6a1,1,0,0,0,1-1V10a1,1,0,0,0-1-1Z"/><path class="cls-1" d="M22,57H16a3,3,0,0,1-3-3V10a3,3,0,0,1,3-3h6a3,3,0,0,1,3,3V54A3,3,0,0,1,22,57ZM16,9a1,1,0,0,0-1,1V54a1,1,0,0,0,1,1h6a1,1,0,0,0,1-1V10a1,1,0,0,0-1-1Z"/></svg>